<?xml version="1.0" encoding="UTF-8"?>
<!DOCTYPE svg PUBLIC "-//W3C//DTD SVG 1.1//EN" "http://www.w3.org/Graphics/SVG/1.1/DTD/svg11.dtd">
<svg xmlns="http://www.w3.org/2000/svg" version="1.1" width="16px" height="16px" style="shape-rendering:geometricPrecision; text-rendering:geometricPrecision; image-rendering:optimizeQuality; fill-rule:evenodd; clip-rule:evenodd" xmlns:xlink="http://www.w3.org/1999/xlink">
<g><path style="opacity:0.885" fill="#5062ed" d="M 2.5,-0.5 C 5.5,-0.5 8.5,-0.5 11.5,-0.5C 12.0774,2.97673 13.0774,6.31006 14.5,9.5C 13.8444,11.4534 13.5111,13.4534 13.5,15.5C 12.5,15.5 11.5,15.5 10.5,15.5C 10.6567,14.1266 10.49,12.7932 10,11.5C 7.544,13.3213 4.71066,13.988 1.5,13.5C 1.22562,8.73704 1.55896,4.07037 2.5,-0.5 Z"/></g>
<g><path style="opacity:0.502" fill="#5064ed" d="M 4.5,4.5 C 5.97782,4.23798 7.31116,4.57131 8.5,5.5C 7.83333,5.83333 7.16667,6.16667 6.5,6.5C 5.28665,6.25284 4.61998,5.58617 4.5,4.5 Z"/></g>
</svg>
