<?xml version="1.0" encoding="UTF-8"?>
<!DOCTYPE svg PUBLIC "-//W3C//DTD SVG 1.1//EN" "http://www.w3.org/Graphics/SVG/1.1/DTD/svg11.dtd">
<svg xmlns="http://www.w3.org/2000/svg" version="1.1" width="14px" height="19px" style="shape-rendering:geometricPrecision; text-rendering:geometricPrecision; image-rendering:optimizeQuality; fill-rule:evenodd; clip-rule:evenodd" xmlns:xlink="http://www.w3.org/1999/xlink">
<g><path style="opacity:0.795" fill="#5063ee" d="M 13.5,3.5 C 13.5,6.16667 13.5,8.83333 13.5,11.5C 11.5293,13.8082 9.52927,16.1415 7.5,18.5C 6.83333,18.5 6.16667,18.5 5.5,18.5C 3.47073,16.1415 1.47073,13.8082 -0.5,11.5C -0.5,8.83333 -0.5,6.16667 -0.5,3.5C 4.16667,-0.5 8.83333,-0.5 13.5,3.5 Z M 2.5,3.5 C 3.78202,4.70823 3.78202,6.04156 2.5,7.5C 1.7084,6.30024 1.7084,4.9669 2.5,3.5 Z M 9.5,3.5 C 11.0878,4.63526 11.4212,5.96859 10.5,7.5C 9.57131,6.31116 9.23798,4.97782 9.5,3.5 Z M 5.5,9.5 C 9.77399,11.9572 9.44066,12.7906 4.5,12C 5.25244,11.3292 5.58577,10.4959 5.5,9.5 Z"/></g>
</svg>
