<?xml version="1.0" encoding="UTF-8"?>
<!DOCTYPE svg PUBLIC "-//W3C//DTD SVG 1.1//EN" "http://www.w3.org/Graphics/SVG/1.1/DTD/svg11.dtd">
<svg xmlns="http://www.w3.org/2000/svg" version="1.1" width="61px" height="60px" style="shape-rendering:geometricPrecision; text-rendering:geometricPrecision; image-rendering:optimizeQuality; fill-rule:evenodd; clip-rule:evenodd" xmlns:xlink="http://www.w3.org/1999/xlink">
<g><path style="opacity:0.741" fill="#fefffe" d="M 24.5,-0.5 C 28.1667,-0.5 31.8333,-0.5 35.5,-0.5C 48.8333,2.83333 57.1667,11.1667 60.5,24.5C 60.5,27.8333 60.5,31.1667 60.5,34.5C 57.1667,47.8333 48.8333,56.1667 35.5,59.5C 31.8333,59.5 28.1667,59.5 24.5,59.5C 11.1667,56.1667 2.83333,47.8333 -0.5,34.5C -0.5,31.1667 -0.5,27.8333 -0.5,24.5C 2.83333,11.1667 11.1667,2.83333 24.5,-0.5 Z M 24.5,3.5 C 45.8339,3.00128 56.3339,13.3346 56,34.5C 51.0519,49.7701 40.5519,56.6035 24.5,55C 5.50075,48.1674 -0.33258,35.334 7,16.5C 11.3801,10.0747 17.2134,5.7414 24.5,3.5 Z M 22.5,20.5 C 28.7568,22.9617 34.7568,25.9617 40.5,29.5C 34.9916,32.7547 29.325,35.7547 23.5,38.5C 22.5041,32.5368 22.1707,26.5368 22.5,20.5 Z"/></g>
<g><path style="opacity:0.751" fill="#fefffe" d="M 19.5,15.5 C 28.8212,18.6581 37.8212,22.6581 46.5,27.5C 47.8333,28.8333 47.8333,30.1667 46.5,31.5C 38.8333,35.3333 31.1667,39.1667 23.5,43C 22.1667,43.6667 20.8333,43.6667 19.5,43C 18.1795,33.8335 18.1795,24.6668 19.5,15.5 Z M 22.5,20.5 C 22.1707,26.5368 22.5041,32.5368 23.5,38.5C 29.325,35.7547 34.9916,32.7547 40.5,29.5C 34.7568,25.9617 28.7568,22.9617 22.5,20.5 Z"/></g>
</svg>
