<?xml version="1.0" encoding="UTF-8"?>
<!DOCTYPE svg PUBLIC "-//W3C//DTD SVG 1.1//EN" "http://www.w3.org/Graphics/SVG/1.1/DTD/svg11.dtd">
<svg xmlns="http://www.w3.org/2000/svg" version="1.1" width="15px" height="15px" style="shape-rendering:geometricPrecision; text-rendering:geometricPrecision; image-rendering:optimizeQuality; fill-rule:evenodd; clip-rule:evenodd" xmlns:xlink="http://www.w3.org/1999/xlink">
<g><path style="opacity:0.898" fill="#5063ee" d="M 1.5,-0.5 C 2.5,-0.5 3.5,-0.5 4.5,-0.5C 5.15339,0.806777 5.82006,2.14011 6.5,3.5C 4.83333,7.83333 6.16667,9.16667 10.5,7.5C 11.6223,8.63023 12.9557,9.29689 14.5,9.5C 14.5,10.5 14.5,11.5 14.5,12.5C 13.5,12.8333 12.8333,13.5 12.5,14.5C 10.8333,14.5 9.16667,14.5 7.5,14.5C 4.5,12.1667 1.83333,9.5 -0.5,6.5C -0.5,4.83333 -0.5,3.16667 -0.5,1.5C 0.5,1.16667 1.16667,0.5 1.5,-0.5 Z"/></g>
</svg>
