<?xml version="1.0" encoding="UTF-8"?>
<!DOCTYPE svg PUBLIC "-//W3C//DTD SVG 1.1//EN" "http://www.w3.org/Graphics/SVG/1.1/DTD/svg11.dtd">
<svg xmlns="http://www.w3.org/2000/svg" version="1.1" width="15px" height="15px" style="shape-rendering:geometricPrecision; text-rendering:geometricPrecision; image-rendering:optimizeQuality; fill-rule:evenodd; clip-rule:evenodd" xmlns:xlink="http://www.w3.org/1999/xlink">
<g><path style="opacity:0.898" fill="#5062ed" d="M 1.5,2.5 C 3.22945,3.23621 4.22945,4.56954 4.5,6.5C 5.30646,7.72813 6.30646,8.72813 7.5,9.5C 8.0899,10.766 8.5899,12.0993 9,13.5C 9.38258,12.944 9.88258,12.6107 10.5,12.5C 10.5,12.8333 10.5,13.1667 10.5,13.5C 10.5,13.8333 10.5,14.1667 10.5,14.5C 8.16667,14.5 5.83333,14.5 3.5,14.5C 1.83333,13.5 0.5,12.1667 -0.5,10.5C -0.5,8.16667 -0.5,5.83333 -0.5,3.5C 0.166667,3.16667 0.833333,2.83333 1.5,2.5 Z"/></g>
<g><path style="opacity:0.887" fill="#5062ed" d="M 3.5,-0.5 C 5.83333,-0.5 8.16667,-0.5 10.5,-0.5C 10.3893,0.117425 10.056,0.617425 9.5,1C 11.0302,2.12026 12.6968,2.95359 14.5,3.5C 14.5,5.83333 14.5,8.16667 14.5,10.5C 13.7638,12.2294 12.4305,13.2294 10.5,13.5C 10.5,13.1667 10.5,12.8333 10.5,12.5C 11.9538,10.7367 11.6204,9.40335 9.5,8.5C 8.83333,7.83333 8.16667,7.16667 7.5,6.5C 7.9528,5.54163 8.61947,4.7083 9.5,4C 8.5,3.66667 7.5,3.33333 6.5,3C 6.83333,2.66667 7.16667,2.33333 7.5,2C 5.57529,2.13494 3.57529,2.3016 1.5,2.5C 1.78219,1.22235 2.44886,0.222348 3.5,-0.5 Z"/></g>
<g><path style="opacity:0.453" fill="#5065ee" d="M 4.5,6.5 C 5.5,6.5 6.5,6.5 7.5,6.5C 8.16667,7.16667 8.83333,7.83333 9.5,8.5C 8.83333,8.83333 8.16667,9.16667 7.5,9.5C 6.30646,8.72813 5.30646,7.72813 4.5,6.5 Z"/></g>
</svg>
